<?xml version="1.0" encoding="utf-8" standalone="no"?>
<!DOCTYPE svg PUBLIC "-//W3C//DTD SVG 1.1//EN"
  "http://www.w3.org/Graphics/SVG/1.1/DTD/svg11.dtd">
<!-- Created with matplotlib (https://matplotlib.org/) -->
<svg height="288pt" version="1.1" viewBox="0 0 432 288" width="432pt" xmlns="http://www.w3.org/2000/svg" xmlns:xlink="http://www.w3.org/1999/xlink">
 <metadata>
  <rdf:RDF xmlns:cc="http://creativecommons.org/ns#" xmlns:dc="http://purl.org/dc/elements/1.1/" xmlns:rdf="http://www.w3.org/1999/02/22-rdf-syntax-ns#">
   <cc:Work>
    <dc:type rdf:resource="http://purl.org/dc/dcmitype/StillImage"/>
    <dc:date>2021-08-22T21:24:22.437182</dc:date>
    <dc:format>image/svg+xml</dc:format>
    <dc:creator>
     <cc:Agent>
      <dc:title>Matplotlib v3.3.4, https://matplotlib.org/</dc:title>
     </cc:Agent>
    </dc:creator>
   </cc:Work>
  </rdf:RDF>
 </metadata>
 <defs>
  <style type="text/css">*{stroke-linecap:butt;stroke-linejoin:round;}</style>
 </defs>
 <g id="figure_1">
  <g id="patch_1">
   <path d="M 0 288 
L 432 288 
L 432 0 
L 0 0 
z
" style="fill:none;"/>
  </g>
  <g id="axes_1">
   <g id="patch_2">
    <path d="M 54 252 
L 388.8 252 
L 388.8 34.56 
L 54 34.56 
z
" style="fill:#ffffff;"/>
   </g>
   <g id="line2d_1">
    <path clip-path="url(#pe81cf3c767)" d="M 373.581818 179.090277 
L 370.12314 179.579901 
L 370.12314 178.89016 
L 366.664463 179.386273 
L 366.664463 177.231423 
L 356.28843 178.769505 
L 356.28843 177.775829 
L 352.829752 178.300759 
L 352.829752 177.794286 
L 349.371074 178.325563 
L 349.371074 176.225455 
L 345.912397 176.770008 
L 345.912397 173.658276 
L 342.453719 174.220079 
L 342.453719 173.923589 
L 338.995041 174.491483 
L 338.995041 172.032397 
L 335.536364 172.614994 
L 335.536364 172.29618 
L 332.077686 172.885362 
L 332.077686 170.916708 
L 328.619008 171.518961 
L 328.619008 171.181174 
L 325.160331 171.79049 
L 325.160331 169.701602 
L 314.784298 171.589913 
L 314.784298 170.510427 
L 311.32562 170.421592 
L 311.32562 169.289569 
L 307.866942 169.95013 
L 307.866942 169.566267 
L 304.408264 170.235372 
L 304.408264 169.848915 
L 300.949587 170.526781 
L 300.949587 168.538182 
L 297.490909 169.231447 
L 297.490909 167.989091 
L 294.032231 168.273103 
L 290.573554 168.988881 
L 290.573554 168.133589 
L 283.656198 169.597375 
L 283.656198 166.463838 
L 276.738843 167.989091 
L 276.738843 167.050771 
L 273.280165 167.831708 
L 273.280165 166.384604 
L 269.821488 167.181604 
L 269.821488 166.688612 
L 255.986777 169.992531 
L 255.986777 167.989091 
L 252.528099 168.853045 
L 252.528099 167.813849 
L 249.069421 168.695065 
L 249.069421 165.407544 
L 245.610744 166.317047 
L 245.610744 164.567832 
L 238.693388 166.444773 
L 238.693388 165.848933 
L 235.234711 166.812468 
L 235.234711 166.210036 
L 231.776033 167.192023 
L 231.776033 165.334395 
L 228.317355 166.341818 
L 228.317355 165.705057 
L 224.858678 166.732696 
L 224.858678 165.432978 
L 221.4 166.485059 
L 221.4 165.821627 
L 214.482645 167.989091 
L 214.482645 165.243636 
L 207.565289 167.522882 
L 207.565289 166.088392 
L 197.189256 169.701602 
L 197.189256 165.93 
L 186.813223 169.848915 
L 186.813223 168.260619 
L 183.354545 169.636364 
L 183.354545 162.565144 
L 172.978512 167.050771 
L 172.978512 166.088392 
L 166.061157 169.289569 
L 166.061157 168.318545 
L 162.602479 169.992531 
L 162.602479 166.945045 
L 159.143802 168.695065 
L 159.143802 167.630988 
L 152.226446 171.308223 
L 152.226446 167.989091 
L 148.767769 169.95013 
L 148.767769 167.584024 
L 145.309091 168.407889 
L 145.309091 165.821627 
L 138.391736 170.235372 
L 138.391736 164.597647 
L 134.933058 167.000727 
L 134.933058 160.468933 
L 131.47438 163.047273 
L 131.47438 150.882797 
L 128.015702 153.683828 
L 128.015702 140.284959 
L 124.557025 143.28 
L 124.557025 136.690909 
L 121.098347 139.87185 
L 121.098347 128.074406 
L 117.639669 131.419636 
L 114.180992 135.043636 
L 110.722314 138.982767 
L 110.722314 134.294876 
L 107.263636 138.573506 
L 107.263636 133.396364 
L 103.804959 138.078086 
L 100.346281 137.466096 
L 96.887603 143.28 
L 96.887603 136.690909 
L 93.428926 143.28 
L 93.428926 135.677203 
L 89.970248 143.28 
L 86.51157 152.265124 
L 83.052893 163.047273 
L 83.052893 154.261818 
L 79.594215 167.989091 
L 79.594215 123.512727 
L 76.135537 143.28 
L 72.67686 176.225455 
L 69.218182 242.116364 
L 69.218182 242.116364 
L 69.218182 44.443636 
L 69.218182 44.443636 
" style="fill:none;stroke:#1f77b4;stroke-linecap:square;stroke-width:1.5;"/>
    <defs>
     <path d="M 0 1.5 
C 0.397805 1.5 0.77937 1.341951 1.06066 1.06066 
C 1.341951 0.77937 1.5 0.397805 1.5 0 
C 1.5 -0.397805 1.341951 -0.77937 1.06066 -1.06066 
C 0.77937 -1.341951 0.397805 -1.5 0 -1.5 
C -0.397805 -1.5 -0.77937 -1.341951 -1.06066 -1.06066 
C -1.341951 -0.77937 -1.5 -0.397805 -1.5 0 
C -1.5 0.397805 -1.341951 0.77937 -1.06066 1.06066 
C -0.77937 1.341951 -0.397805 1.5 0 1.5 
z
" id="ma9905855b5" style="stroke:#1f77b4;"/>
    </defs>
    <g clip-path="url(#pe81cf3c767)">
     <use style="fill:#1f77b4;stroke:#1f77b4;" x="373.581818" xlink:href="#ma9905855b5" y="179.090277"/>
     <use style="fill:#1f77b4;stroke:#1f77b4;" x="370.12314" xlink:href="#ma9905855b5" y="179.579901"/>
     <use style="fill:#1f77b4;stroke:#1f77b4;" x="370.12314" xlink:href="#ma9905855b5" y="179.351666"/>
     <use style="fill:#1f77b4;stroke:#1f77b4;" x="370.12314" xlink:href="#ma9905855b5" y="179.121758"/>
     <use style="fill:#1f77b4;stroke:#1f77b4;" x="370.12314" xlink:href="#ma9905855b5" y="178.89016"/>
     <use style="fill:#1f77b4;stroke:#1f77b4;" x="366.664463" xlink:href="#ma9905855b5" y="179.386273"/>
     <use style="fill:#1f77b4;stroke:#1f77b4;" x="366.664463" xlink:href="#ma9905855b5" y="179.153939"/>
     <use style="fill:#1f77b4;stroke:#1f77b4;" x="366.664463" xlink:href="#ma9905855b5" y="178.919878"/>
     <use style="fill:#1f77b4;stroke:#1f77b4;" x="366.664463" xlink:href="#ma9905855b5" y="178.684071"/>
     <use style="fill:#1f77b4;stroke:#1f77b4;" x="366.664463" xlink:href="#ma9905855b5" y="178.446496"/>
     <use style="fill:#1f77b4;stroke:#1f77b4;" x="366.664463" xlink:href="#ma9905855b5" y="178.207136"/>
     <use style="fill:#1f77b4;stroke:#1f77b4;" x="366.664463" xlink:href="#ma9905855b5" y="177.965969"/>
     <use style="fill:#1f77b4;stroke:#1f77b4;" x="366.664463" xlink:href="#ma9905855b5" y="177.722975"/>
     <use style="fill:#1f77b4;stroke:#1f77b4;" x="366.664463" xlink:href="#ma9905855b5" y="177.478133"/>
     <use style="fill:#1f77b4;stroke:#1f77b4;" x="366.664463" xlink:href="#ma9905855b5" y="177.231423"/>
     <use style="fill:#1f77b4;stroke:#1f77b4;" x="363.205785" xlink:href="#ma9905855b5" y="177.740188"/>
     <use style="fill:#1f77b4;stroke:#1f77b4;" x="359.747107" xlink:href="#ma9905855b5" y="178.252867"/>
     <use style="fill:#1f77b4;stroke:#1f77b4;" x="356.28843" xlink:href="#ma9905855b5" y="178.769505"/>
     <use style="fill:#1f77b4;stroke:#1f77b4;" x="356.28843" xlink:href="#ma9905855b5" y="178.523975"/>
     <use style="fill:#1f77b4;stroke:#1f77b4;" x="356.28843" xlink:href="#ma9905855b5" y="178.276533"/>
     <use style="fill:#1f77b4;stroke:#1f77b4;" x="356.28843" xlink:href="#ma9905855b5" y="178.027159"/>
     <use style="fill:#1f77b4;stroke:#1f77b4;" x="356.28843" xlink:href="#ma9905855b5" y="177.775829"/>
     <use style="fill:#1f77b4;stroke:#1f77b4;" x="352.829752" xlink:href="#ma9905855b5" y="178.300759"/>
     <use style="fill:#1f77b4;stroke:#1f77b4;" x="352.829752" xlink:href="#ma9905855b5" y="178.048523"/>
     <use style="fill:#1f77b4;stroke:#1f77b4;" x="352.829752" xlink:href="#ma9905855b5" y="177.794286"/>
     <use style="fill:#1f77b4;stroke:#1f77b4;" x="349.371074" xlink:href="#ma9905855b5" y="178.325563"/>
     <use style="fill:#1f77b4;stroke:#1f77b4;" x="349.371074" xlink:href="#ma9905855b5" y="178.0704"/>
     <use style="fill:#1f77b4;stroke:#1f77b4;" x="349.371074" xlink:href="#ma9905855b5" y="177.813187"/>
     <use style="fill:#1f77b4;stroke:#1f77b4;" x="349.371074" xlink:href="#ma9905855b5" y="177.5539"/>
     <use style="fill:#1f77b4;stroke:#1f77b4;" x="349.371074" xlink:href="#ma9905855b5" y="177.292514"/>
     <use style="fill:#1f77b4;stroke:#1f77b4;" x="349.371074" xlink:href="#ma9905855b5" y="177.029002"/>
     <use style="fill:#1f77b4;stroke:#1f77b4;" x="349.371074" xlink:href="#ma9905855b5" y="176.495499"/>
     <use style="fill:#1f77b4;stroke:#1f77b4;" x="349.371074" xlink:href="#ma9905855b5" y="176.225455"/>
     <use style="fill:#1f77b4;stroke:#1f77b4;" x="345.912397" xlink:href="#ma9905855b5" y="176.770008"/>
     <use style="fill:#1f77b4;stroke:#1f77b4;" x="345.912397" xlink:href="#ma9905855b5" y="176.498861"/>
     <use style="fill:#1f77b4;stroke:#1f77b4;" x="345.912397" xlink:href="#ma9905855b5" y="176.225455"/>
     <use style="fill:#1f77b4;stroke:#1f77b4;" x="345.912397" xlink:href="#ma9905855b5" y="175.94976"/>
     <use style="fill:#1f77b4;stroke:#1f77b4;" x="345.912397" xlink:href="#ma9905855b5" y="175.671749"/>
     <use style="fill:#1f77b4;stroke:#1f77b4;" x="345.912397" xlink:href="#ma9905855b5" y="175.391392"/>
     <use style="fill:#1f77b4;stroke:#1f77b4;" x="345.912397" xlink:href="#ma9905855b5" y="175.108659"/>
     <use style="fill:#1f77b4;stroke:#1f77b4;" x="345.912397" xlink:href="#ma9905855b5" y="174.82352"/>
     <use style="fill:#1f77b4;stroke:#1f77b4;" x="345.912397" xlink:href="#ma9905855b5" y="174.245899"/>
     <use style="fill:#1f77b4;stroke:#1f77b4;" x="345.912397" xlink:href="#ma9905855b5" y="173.953354"/>
     <use style="fill:#1f77b4;stroke:#1f77b4;" x="345.912397" xlink:href="#ma9905855b5" y="173.658276"/>
     <use style="fill:#1f77b4;stroke:#1f77b4;" x="342.453719" xlink:href="#ma9905855b5" y="174.220079"/>
     <use style="fill:#1f77b4;stroke:#1f77b4;" x="342.453719" xlink:href="#ma9905855b5" y="173.923589"/>
     <use style="fill:#1f77b4;stroke:#1f77b4;" x="338.995041" xlink:href="#ma9905855b5" y="174.491483"/>
     <use style="fill:#1f77b4;stroke:#1f77b4;" x="338.995041" xlink:href="#ma9905855b5" y="174.193576"/>
     <use style="fill:#1f77b4;stroke:#1f77b4;" x="338.995041" xlink:href="#ma9905855b5" y="173.893033"/>
     <use style="fill:#1f77b4;stroke:#1f77b4;" x="338.995041" xlink:href="#ma9905855b5" y="173.589818"/>
     <use style="fill:#1f77b4;stroke:#1f77b4;" x="338.995041" xlink:href="#ma9905855b5" y="173.283896"/>
     <use style="fill:#1f77b4;stroke:#1f77b4;" x="338.995041" xlink:href="#ma9905855b5" y="172.97523"/>
     <use style="fill:#1f77b4;stroke:#1f77b4;" x="338.995041" xlink:href="#ma9905855b5" y="172.663784"/>
     <use style="fill:#1f77b4;stroke:#1f77b4;" x="338.995041" xlink:href="#ma9905855b5" y="172.349519"/>
     <use style="fill:#1f77b4;stroke:#1f77b4;" x="338.995041" xlink:href="#ma9905855b5" y="172.032397"/>
     <use style="fill:#1f77b4;stroke:#1f77b4;" x="335.536364" xlink:href="#ma9905855b5" y="172.614994"/>
     <use style="fill:#1f77b4;stroke:#1f77b4;" x="335.536364" xlink:href="#ma9905855b5" y="172.29618"/>
     <use style="fill:#1f77b4;stroke:#1f77b4;" x="332.077686" xlink:href="#ma9905855b5" y="172.885362"/>
     <use style="fill:#1f77b4;stroke:#1f77b4;" x="332.077686" xlink:href="#ma9905855b5" y="172.564848"/>
     <use style="fill:#1f77b4;stroke:#1f77b4;" x="332.077686" xlink:href="#ma9905855b5" y="172.241353"/>
     <use style="fill:#1f77b4;stroke:#1f77b4;" x="332.077686" xlink:href="#ma9905855b5" y="171.914834"/>
     <use style="fill:#1f77b4;stroke:#1f77b4;" x="332.077686" xlink:href="#ma9905855b5" y="171.58525"/>
     <use style="fill:#1f77b4;stroke:#1f77b4;" x="332.077686" xlink:href="#ma9905855b5" y="171.252556"/>
     <use style="fill:#1f77b4;stroke:#1f77b4;" x="332.077686" xlink:href="#ma9905855b5" y="170.916708"/>
     <use style="fill:#1f77b4;stroke:#1f77b4;" x="328.619008" xlink:href="#ma9905855b5" y="171.518961"/>
     <use style="fill:#1f77b4;stroke:#1f77b4;" x="328.619008" xlink:href="#ma9905855b5" y="171.181174"/>
     <use style="fill:#1f77b4;stroke:#1f77b4;" x="325.160331" xlink:href="#ma9905855b5" y="171.79049"/>
     <use style="fill:#1f77b4;stroke:#1f77b4;" x="325.160331" xlink:href="#ma9905855b5" y="171.107714"/>
     <use style="fill:#1f77b4;stroke:#1f77b4;" x="325.160331" xlink:href="#ma9905855b5" y="170.76133"/>
     <use style="fill:#1f77b4;stroke:#1f77b4;" x="325.160331" xlink:href="#ma9905855b5" y="170.411551"/>
     <use style="fill:#1f77b4;stroke:#1f77b4;" x="325.160331" xlink:href="#ma9905855b5" y="170.058325"/>
     <use style="fill:#1f77b4;stroke:#1f77b4;" x="325.160331" xlink:href="#ma9905855b5" y="169.701602"/>
     <use style="fill:#1f77b4;stroke:#1f77b4;" x="321.701653" xlink:href="#ma9905855b5" y="170.324776"/>
     <use style="fill:#1f77b4;stroke:#1f77b4;" x="318.242975" xlink:href="#ma9905855b5" y="170.954182"/>
     <use style="fill:#1f77b4;stroke:#1f77b4;" x="314.784298" xlink:href="#ma9905855b5" y="171.589913"/>
     <use style="fill:#1f77b4;stroke:#1f77b4;" x="314.784298" xlink:href="#ma9905855b5" y="171.233719"/>
     <use style="fill:#1f77b4;stroke:#1f77b4;" x="314.784298" xlink:href="#ma9905855b5" y="170.873909"/>
     <use style="fill:#1f77b4;stroke:#1f77b4;" x="314.784298" xlink:href="#ma9905855b5" y="170.510427"/>
     <use style="fill:#1f77b4;stroke:#1f77b4;" x="311.32562" xlink:href="#ma9905855b5" y="170.421592"/>
     <use style="fill:#1f77b4;stroke:#1f77b4;" x="311.32562" xlink:href="#ma9905855b5" y="170.048182"/>
     <use style="fill:#1f77b4;stroke:#1f77b4;" x="311.32562" xlink:href="#ma9905855b5" y="169.670861"/>
     <use style="fill:#1f77b4;stroke:#1f77b4;" x="311.32562" xlink:href="#ma9905855b5" y="169.289569"/>
     <use style="fill:#1f77b4;stroke:#1f77b4;" x="307.866942" xlink:href="#ma9905855b5" y="169.95013"/>
     <use style="fill:#1f77b4;stroke:#1f77b4;" x="307.866942" xlink:href="#ma9905855b5" y="169.566267"/>
     <use style="fill:#1f77b4;stroke:#1f77b4;" x="304.408264" xlink:href="#ma9905855b5" y="170.235372"/>
     <use style="fill:#1f77b4;stroke:#1f77b4;" x="304.408264" xlink:href="#ma9905855b5" y="169.848915"/>
     <use style="fill:#1f77b4;stroke:#1f77b4;" x="300.949587" xlink:href="#ma9905855b5" y="170.526781"/>
     <use style="fill:#1f77b4;stroke:#1f77b4;" x="300.949587" xlink:href="#ma9905855b5" y="169.744382"/>
     <use style="fill:#1f77b4;stroke:#1f77b4;" x="300.949587" xlink:href="#ma9905855b5" y="169.346733"/>
     <use style="fill:#1f77b4;stroke:#1f77b4;" x="300.949587" xlink:href="#ma9905855b5" y="168.944691"/>
     <use style="fill:#1f77b4;stroke:#1f77b4;" x="300.949587" xlink:href="#ma9905855b5" y="168.538182"/>
     <use style="fill:#1f77b4;stroke:#1f77b4;" x="297.490909" xlink:href="#ma9905855b5" y="169.231447"/>
     <use style="fill:#1f77b4;stroke:#1f77b4;" x="297.490909" xlink:href="#ma9905855b5" y="168.821982"/>
     <use style="fill:#1f77b4;stroke:#1f77b4;" x="297.490909" xlink:href="#ma9905855b5" y="168.407889"/>
     <use style="fill:#1f77b4;stroke:#1f77b4;" x="297.490909" xlink:href="#ma9905855b5" y="167.989091"/>
     <use style="fill:#1f77b4;stroke:#1f77b4;" x="294.032231" xlink:href="#ma9905855b5" y="168.273103"/>
     <use style="fill:#1f77b4;stroke:#1f77b4;" x="290.573554" xlink:href="#ma9905855b5" y="168.988881"/>
     <use style="fill:#1f77b4;stroke:#1f77b4;" x="290.573554" xlink:href="#ma9905855b5" y="168.563721"/>
     <use style="fill:#1f77b4;stroke:#1f77b4;" x="290.573554" xlink:href="#ma9905855b5" y="168.133589"/>
     <use style="fill:#1f77b4;stroke:#1f77b4;" x="287.114876" xlink:href="#ma9905855b5" y="168.861176"/>
     <use style="fill:#1f77b4;stroke:#1f77b4;" x="283.656198" xlink:href="#ma9905855b5" y="169.597375"/>
     <use style="fill:#1f77b4;stroke:#1f77b4;" x="283.656198" xlink:href="#ma9905855b5" y="169.165714"/>
     <use style="fill:#1f77b4;stroke:#1f77b4;" x="283.656198" xlink:href="#ma9905855b5" y="168.728884"/>
     <use style="fill:#1f77b4;stroke:#1f77b4;" x="283.656198" xlink:href="#ma9905855b5" y="168.286791"/>
     <use style="fill:#1f77b4;stroke:#1f77b4;" x="283.656198" xlink:href="#ma9905855b5" y="167.839339"/>
     <use style="fill:#1f77b4;stroke:#1f77b4;" x="283.656198" xlink:href="#ma9905855b5" y="167.38643"/>
     <use style="fill:#1f77b4;stroke:#1f77b4;" x="283.656198" xlink:href="#ma9905855b5" y="166.927964"/>
     <use style="fill:#1f77b4;stroke:#1f77b4;" x="283.656198" xlink:href="#ma9905855b5" y="166.463838"/>
     <use style="fill:#1f77b4;stroke:#1f77b4;" x="280.197521" xlink:href="#ma9905855b5" y="167.221728"/>
     <use style="fill:#1f77b4;stroke:#1f77b4;" x="276.738843" xlink:href="#ma9905855b5" y="167.989091"/>
     <use style="fill:#1f77b4;stroke:#1f77b4;" x="276.738843" xlink:href="#ma9905855b5" y="167.522882"/>
     <use style="fill:#1f77b4;stroke:#1f77b4;" x="276.738843" xlink:href="#ma9905855b5" y="167.050771"/>
     <use style="fill:#1f77b4;stroke:#1f77b4;" x="273.280165" xlink:href="#ma9905855b5" y="167.831708"/>
     <use style="fill:#1f77b4;stroke:#1f77b4;" x="273.280165" xlink:href="#ma9905855b5" y="167.355524"/>
     <use style="fill:#1f77b4;stroke:#1f77b4;" x="273.280165" xlink:href="#ma9905855b5" y="166.873196"/>
     <use style="fill:#1f77b4;stroke:#1f77b4;" x="273.280165" xlink:href="#ma9905855b5" y="166.384604"/>
     <use style="fill:#1f77b4;stroke:#1f77b4;" x="269.821488" xlink:href="#ma9905855b5" y="167.181604"/>
     <use style="fill:#1f77b4;stroke:#1f77b4;" x="269.821488" xlink:href="#ma9905855b5" y="166.688612"/>
     <use style="fill:#1f77b4;stroke:#1f77b4;" x="266.36281" xlink:href="#ma9905855b5" y="167.498182"/>
     <use style="fill:#1f77b4;stroke:#1f77b4;" x="262.904132" xlink:href="#ma9905855b5" y="168.318545"/>
     <use style="fill:#1f77b4;stroke:#1f77b4;" x="255.986777" xlink:href="#ma9905855b5" y="169.992531"/>
     <use style="fill:#1f77b4;stroke:#1f77b4;" x="255.986777" xlink:href="#ma9905855b5" y="169.501892"/>
     <use style="fill:#1f77b4;stroke:#1f77b4;" x="255.986777" xlink:href="#ma9905855b5" y="169.004533"/>
     <use style="fill:#1f77b4;stroke:#1f77b4;" x="255.986777" xlink:href="#ma9905855b5" y="168.500313"/>
     <use style="fill:#1f77b4;stroke:#1f77b4;" x="255.986777" xlink:href="#ma9905855b5" y="167.989091"/>
     <use style="fill:#1f77b4;stroke:#1f77b4;" x="252.528099" xlink:href="#ma9905855b5" y="168.853045"/>
     <use style="fill:#1f77b4;stroke:#1f77b4;" x="252.528099" xlink:href="#ma9905855b5" y="168.337106"/>
     <use style="fill:#1f77b4;stroke:#1f77b4;" x="252.528099" xlink:href="#ma9905855b5" y="167.813849"/>
     <use style="fill:#1f77b4;stroke:#1f77b4;" x="249.069421" xlink:href="#ma9905855b5" y="168.695065"/>
     <use style="fill:#1f77b4;stroke:#1f77b4;" x="249.069421" xlink:href="#ma9905855b5" y="168.166854"/>
     <use style="fill:#1f77b4;stroke:#1f77b4;" x="249.069421" xlink:href="#ma9905855b5" y="167.630988"/>
     <use style="fill:#1f77b4;stroke:#1f77b4;" x="249.069421" xlink:href="#ma9905855b5" y="167.087299"/>
     <use style="fill:#1f77b4;stroke:#1f77b4;" x="249.069421" xlink:href="#ma9905855b5" y="166.535615"/>
     <use style="fill:#1f77b4;stroke:#1f77b4;" x="249.069421" xlink:href="#ma9905855b5" y="165.975758"/>
     <use style="fill:#1f77b4;stroke:#1f77b4;" x="249.069421" xlink:href="#ma9905855b5" y="165.407544"/>
     <use style="fill:#1f77b4;stroke:#1f77b4;" x="245.610744" xlink:href="#ma9905855b5" y="166.317047"/>
     <use style="fill:#1f77b4;stroke:#1f77b4;" x="245.610744" xlink:href="#ma9905855b5" y="165.74281"/>
     <use style="fill:#1f77b4;stroke:#1f77b4;" x="245.610744" xlink:href="#ma9905855b5" y="165.159806"/>
     <use style="fill:#1f77b4;stroke:#1f77b4;" x="245.610744" xlink:href="#ma9905855b5" y="164.567832"/>
     <use style="fill:#1f77b4;stroke:#1f77b4;" x="242.152066" xlink:href="#ma9905855b5" y="165.499027"/>
     <use style="fill:#1f77b4;stroke:#1f77b4;" x="238.693388" xlink:href="#ma9905855b5" y="166.444773"/>
     <use style="fill:#1f77b4;stroke:#1f77b4;" x="238.693388" xlink:href="#ma9905855b5" y="165.848933"/>
     <use style="fill:#1f77b4;stroke:#1f77b4;" x="235.234711" xlink:href="#ma9905855b5" y="166.812468"/>
     <use style="fill:#1f77b4;stroke:#1f77b4;" x="235.234711" xlink:href="#ma9905855b5" y="166.210036"/>
     <use style="fill:#1f77b4;stroke:#1f77b4;" x="231.776033" xlink:href="#ma9905855b5" y="167.192023"/>
     <use style="fill:#1f77b4;stroke:#1f77b4;" x="231.776033" xlink:href="#ma9905855b5" y="166.582882"/>
     <use style="fill:#1f77b4;stroke:#1f77b4;" x="231.776033" xlink:href="#ma9905855b5" y="165.963756"/>
     <use style="fill:#1f77b4;stroke:#1f77b4;" x="231.776033" xlink:href="#ma9905855b5" y="165.334395"/>
     <use style="fill:#1f77b4;stroke:#1f77b4;" x="228.317355" xlink:href="#ma9905855b5" y="166.341818"/>
     <use style="fill:#1f77b4;stroke:#1f77b4;" x="228.317355" xlink:href="#ma9905855b5" y="165.705057"/>
     <use style="fill:#1f77b4;stroke:#1f77b4;" x="224.858678" xlink:href="#ma9905855b5" y="166.732696"/>
     <use style="fill:#1f77b4;stroke:#1f77b4;" x="224.858678" xlink:href="#ma9905855b5" y="166.088392"/>
     <use style="fill:#1f77b4;stroke:#1f77b4;" x="224.858678" xlink:href="#ma9905855b5" y="165.432978"/>
     <use style="fill:#1f77b4;stroke:#1f77b4;" x="221.4" xlink:href="#ma9905855b5" y="166.485059"/>
     <use style="fill:#1f77b4;stroke:#1f77b4;" x="221.4" xlink:href="#ma9905855b5" y="165.821627"/>
     <use style="fill:#1f77b4;stroke:#1f77b4;" x="217.941322" xlink:href="#ma9905855b5" y="166.895768"/>
     <use style="fill:#1f77b4;stroke:#1f77b4;" x="214.482645" xlink:href="#ma9905855b5" y="167.989091"/>
     <use style="fill:#1f77b4;stroke:#1f77b4;" x="214.482645" xlink:href="#ma9905855b5" y="167.321278"/>
     <use style="fill:#1f77b4;stroke:#1f77b4;" x="214.482645" xlink:href="#ma9905855b5" y="166.641322"/>
     <use style="fill:#1f77b4;stroke:#1f77b4;" x="214.482645" xlink:href="#ma9905855b5" y="165.948891"/>
     <use style="fill:#1f77b4;stroke:#1f77b4;" x="214.482645" xlink:href="#ma9905855b5" y="165.243636"/>
     <use style="fill:#1f77b4;stroke:#1f77b4;" x="211.023967" xlink:href="#ma9905855b5" y="166.372608"/>
     <use style="fill:#1f77b4;stroke:#1f77b4;" x="207.565289" xlink:href="#ma9905855b5" y="167.522882"/>
     <use style="fill:#1f77b4;stroke:#1f77b4;" x="207.565289" xlink:href="#ma9905855b5" y="166.812468"/>
     <use style="fill:#1f77b4;stroke:#1f77b4;" x="207.565289" xlink:href="#ma9905855b5" y="166.088392"/>
     <use style="fill:#1f77b4;stroke:#1f77b4;" x="204.106612" xlink:href="#ma9905855b5" y="167.269409"/>
     <use style="fill:#1f77b4;stroke:#1f77b4;" x="200.647934" xlink:href="#ma9905855b5" y="168.473583"/>
     <use style="fill:#1f77b4;stroke:#1f77b4;" x="197.189256" xlink:href="#ma9905855b5" y="169.701602"/>
     <use style="fill:#1f77b4;stroke:#1f77b4;" x="197.189256" xlink:href="#ma9905855b5" y="168.977455"/>
     <use style="fill:#1f77b4;stroke:#1f77b4;" x="197.189256" xlink:href="#ma9905855b5" y="168.238678"/>
     <use style="fill:#1f77b4;stroke:#1f77b4;" x="197.189256" xlink:href="#ma9905855b5" y="167.484824"/>
     <use style="fill:#1f77b4;stroke:#1f77b4;" x="197.189256" xlink:href="#ma9905855b5" y="166.715426"/>
     <use style="fill:#1f77b4;stroke:#1f77b4;" x="197.189256" xlink:href="#ma9905855b5" y="165.93"/>
     <use style="fill:#1f77b4;stroke:#1f77b4;" x="193.730579" xlink:href="#ma9905855b5" y="167.208804"/>
     <use style="fill:#1f77b4;stroke:#1f77b4;" x="190.271901" xlink:href="#ma9905855b5" y="168.514816"/>
     <use style="fill:#1f77b4;stroke:#1f77b4;" x="186.813223" xlink:href="#ma9905855b5" y="169.848915"/>
     <use style="fill:#1f77b4;stroke:#1f77b4;" x="186.813223" xlink:href="#ma9905855b5" y="169.063399"/>
     <use style="fill:#1f77b4;stroke:#1f77b4;" x="186.813223" xlink:href="#ma9905855b5" y="168.260619"/>
     <use style="fill:#1f77b4;stroke:#1f77b4;" x="183.354545" xlink:href="#ma9905855b5" y="169.636364"/>
     <use style="fill:#1f77b4;stroke:#1f77b4;" x="183.354545" xlink:href="#ma9905855b5" y="168.821982"/>
     <use style="fill:#1f77b4;stroke:#1f77b4;" x="183.354545" xlink:href="#ma9905855b5" y="167.989091"/>
     <use style="fill:#1f77b4;stroke:#1f77b4;" x="183.354545" xlink:href="#ma9905855b5" y="167.137053"/>
     <use style="fill:#1f77b4;stroke:#1f77b4;" x="183.354545" xlink:href="#ma9905855b5" y="166.265201"/>
     <use style="fill:#1f77b4;stroke:#1f77b4;" x="183.354545" xlink:href="#ma9905855b5" y="165.372834"/>
     <use style="fill:#1f77b4;stroke:#1f77b4;" x="183.354545" xlink:href="#ma9905855b5" y="163.523593"/>
     <use style="fill:#1f77b4;stroke:#1f77b4;" x="183.354545" xlink:href="#ma9905855b5" y="162.565144"/>
     <use style="fill:#1f77b4;stroke:#1f77b4;" x="179.895868" xlink:href="#ma9905855b5" y="164.023434"/>
     <use style="fill:#1f77b4;stroke:#1f77b4;" x="176.43719" xlink:href="#ma9905855b5" y="165.518182"/>
     <use style="fill:#1f77b4;stroke:#1f77b4;" x="172.978512" xlink:href="#ma9905855b5" y="167.050771"/>
     <use style="fill:#1f77b4;stroke:#1f77b4;" x="172.978512" xlink:href="#ma9905855b5" y="166.088392"/>
     <use style="fill:#1f77b4;stroke:#1f77b4;" x="169.519835" xlink:href="#ma9905855b5" y="167.668194"/>
     <use style="fill:#1f77b4;stroke:#1f77b4;" x="166.061157" xlink:href="#ma9905855b5" y="169.289569"/>
     <use style="fill:#1f77b4;stroke:#1f77b4;" x="166.061157" xlink:href="#ma9905855b5" y="168.318545"/>
     <use style="fill:#1f77b4;stroke:#1f77b4;" x="162.602479" xlink:href="#ma9905855b5" y="169.992531"/>
     <use style="fill:#1f77b4;stroke:#1f77b4;" x="162.602479" xlink:href="#ma9905855b5" y="169.004533"/>
     <use style="fill:#1f77b4;stroke:#1f77b4;" x="162.602479" xlink:href="#ma9905855b5" y="167.989091"/>
     <use style="fill:#1f77b4;stroke:#1f77b4;" x="162.602479" xlink:href="#ma9905855b5" y="166.945045"/>
     <use style="fill:#1f77b4;stroke:#1f77b4;" x="159.143802" xlink:href="#ma9905855b5" y="168.695065"/>
     <use style="fill:#1f77b4;stroke:#1f77b4;" x="159.143802" xlink:href="#ma9905855b5" y="167.630988"/>
     <use style="fill:#1f77b4;stroke:#1f77b4;" x="155.685124" xlink:href="#ma9905855b5" y="169.442567"/>
     <use style="fill:#1f77b4;stroke:#1f77b4;" x="152.226446" xlink:href="#ma9905855b5" y="171.308223"/>
     <use style="fill:#1f77b4;stroke:#1f77b4;" x="152.226446" xlink:href="#ma9905855b5" y="170.235372"/>
     <use style="fill:#1f77b4;stroke:#1f77b4;" x="152.226446" xlink:href="#ma9905855b5" y="169.12951"/>
     <use style="fill:#1f77b4;stroke:#1f77b4;" x="152.226446" xlink:href="#ma9905855b5" y="167.989091"/>
     <use style="fill:#1f77b4;stroke:#1f77b4;" x="148.767769" xlink:href="#ma9905855b5" y="169.95013"/>
     <use style="fill:#1f77b4;stroke:#1f77b4;" x="148.767769" xlink:href="#ma9905855b5" y="168.786158"/>
     <use style="fill:#1f77b4;stroke:#1f77b4;" x="148.767769" xlink:href="#ma9905855b5" y="167.584024"/>
     <use style="fill:#1f77b4;stroke:#1f77b4;" x="145.309091" xlink:href="#ma9905855b5" y="168.407889"/>
     <use style="fill:#1f77b4;stroke:#1f77b4;" x="145.309091" xlink:href="#ma9905855b5" y="167.137053"/>
     <use style="fill:#1f77b4;stroke:#1f77b4;" x="145.309091" xlink:href="#ma9905855b5" y="165.821627"/>
     <use style="fill:#1f77b4;stroke:#1f77b4;" x="141.850413" xlink:href="#ma9905855b5" y="167.989091"/>
     <use style="fill:#1f77b4;stroke:#1f77b4;" x="138.391736" xlink:href="#ma9905855b5" y="170.235372"/>
     <use style="fill:#1f77b4;stroke:#1f77b4;" x="138.391736" xlink:href="#ma9905855b5" y="168.904242"/>
     <use style="fill:#1f77b4;stroke:#1f77b4;" x="138.391736" xlink:href="#ma9905855b5" y="167.522882"/>
     <use style="fill:#1f77b4;stroke:#1f77b4;" x="138.391736" xlink:href="#ma9905855b5" y="164.597647"/>
     <use style="fill:#1f77b4;stroke:#1f77b4;" x="134.933058" xlink:href="#ma9905855b5" y="167.000727"/>
     <use style="fill:#1f77b4;stroke:#1f77b4;" x="134.933058" xlink:href="#ma9905855b5" y="165.467755"/>
     <use style="fill:#1f77b4;stroke:#1f77b4;" x="134.933058" xlink:href="#ma9905855b5" y="163.870909"/>
     <use style="fill:#1f77b4;stroke:#1f77b4;" x="134.933058" xlink:href="#ma9905855b5" y="162.206112"/>
     <use style="fill:#1f77b4;stroke:#1f77b4;" x="134.933058" xlink:href="#ma9905855b5" y="160.468933"/>
     <use style="fill:#1f77b4;stroke:#1f77b4;" x="131.47438" xlink:href="#ma9905855b5" y="163.047273"/>
     <use style="fill:#1f77b4;stroke:#1f77b4;" x="131.47438" xlink:href="#ma9905855b5" y="161.250248"/>
     <use style="fill:#1f77b4;stroke:#1f77b4;" x="131.47438" xlink:href="#ma9905855b5" y="159.369641"/>
     <use style="fill:#1f77b4;stroke:#1f77b4;" x="131.47438" xlink:href="#ma9905855b5" y="157.399481"/>
     <use style="fill:#1f77b4;stroke:#1f77b4;" x="131.47438" xlink:href="#ma9905855b5" y="155.333215"/>
     <use style="fill:#1f77b4;stroke:#1f77b4;" x="131.47438" xlink:href="#ma9905855b5" y="150.882797"/>
     <use style="fill:#1f77b4;stroke:#1f77b4;" x="128.015702" xlink:href="#ma9905855b5" y="153.683828"/>
     <use style="fill:#1f77b4;stroke:#1f77b4;" x="128.015702" xlink:href="#ma9905855b5" y="151.293759"/>
     <use style="fill:#1f77b4;stroke:#1f77b4;" x="128.015702" xlink:href="#ma9905855b5" y="146.103896"/>
     <use style="fill:#1f77b4;stroke:#1f77b4;" x="128.015702" xlink:href="#ma9905855b5" y="143.28"/>
     <use style="fill:#1f77b4;stroke:#1f77b4;" x="128.015702" xlink:href="#ma9905855b5" y="140.284959"/>
     <use style="fill:#1f77b4;stroke:#1f77b4;" x="124.557025" xlink:href="#ma9905855b5" y="143.28"/>
     <use style="fill:#1f77b4;stroke:#1f77b4;" x="124.557025" xlink:href="#ma9905855b5" y="140.09173"/>
     <use style="fill:#1f77b4;stroke:#1f77b4;" x="124.557025" xlink:href="#ma9905855b5" y="136.690909"/>
     <use style="fill:#1f77b4;stroke:#1f77b4;" x="121.098347" xlink:href="#ma9905855b5" y="139.87185"/>
     <use style="fill:#1f77b4;stroke:#1f77b4;" x="121.098347" xlink:href="#ma9905855b5" y="136.22026"/>
     <use style="fill:#1f77b4;stroke:#1f77b4;" x="121.098347" xlink:href="#ma9905855b5" y="132.298182"/>
     <use style="fill:#1f77b4;stroke:#1f77b4;" x="121.098347" xlink:href="#ma9905855b5" y="128.074406"/>
     <use style="fill:#1f77b4;stroke:#1f77b4;" x="117.639669" xlink:href="#ma9905855b5" y="131.419636"/>
     <use style="fill:#1f77b4;stroke:#1f77b4;" x="114.180992" xlink:href="#ma9905855b5" y="135.043636"/>
     <use style="fill:#1f77b4;stroke:#1f77b4;" x="110.722314" xlink:href="#ma9905855b5" y="138.982767"/>
     <use style="fill:#1f77b4;stroke:#1f77b4;" x="110.722314" xlink:href="#ma9905855b5" y="134.294876"/>
     <use style="fill:#1f77b4;stroke:#1f77b4;" x="107.263636" xlink:href="#ma9905855b5" y="138.573506"/>
     <use style="fill:#1f77b4;stroke:#1f77b4;" x="107.263636" xlink:href="#ma9905855b5" y="133.396364"/>
     <use style="fill:#1f77b4;stroke:#1f77b4;" x="103.804959" xlink:href="#ma9905855b5" y="138.078086"/>
     <use style="fill:#1f77b4;stroke:#1f77b4;" x="100.346281" xlink:href="#ma9905855b5" y="137.466096"/>
     <use style="fill:#1f77b4;stroke:#1f77b4;" x="96.887603" xlink:href="#ma9905855b5" y="143.28"/>
     <use style="fill:#1f77b4;stroke:#1f77b4;" x="96.887603" xlink:href="#ma9905855b5" y="136.690909"/>
     <use style="fill:#1f77b4;stroke:#1f77b4;" x="93.428926" xlink:href="#ma9905855b5" y="143.28"/>
     <use style="fill:#1f77b4;stroke:#1f77b4;" x="93.428926" xlink:href="#ma9905855b5" y="135.677203"/>
     <use style="fill:#1f77b4;stroke:#1f77b4;" x="89.970248" xlink:href="#ma9905855b5" y="143.28"/>
     <use style="fill:#1f77b4;stroke:#1f77b4;" x="86.51157" xlink:href="#ma9905855b5" y="152.265124"/>
     <use style="fill:#1f77b4;stroke:#1f77b4;" x="83.052893" xlink:href="#ma9905855b5" y="163.047273"/>
     <use style="fill:#1f77b4;stroke:#1f77b4;" x="83.052893" xlink:href="#ma9905855b5" y="154.261818"/>
     <use style="fill:#1f77b4;stroke:#1f77b4;" x="79.594215" xlink:href="#ma9905855b5" y="167.989091"/>
     <use style="fill:#1f77b4;stroke:#1f77b4;" x="79.594215" xlink:href="#ma9905855b5" y="157.399481"/>
     <use style="fill:#1f77b4;stroke:#1f77b4;" x="79.594215" xlink:href="#ma9905855b5" y="143.28"/>
     <use style="fill:#1f77b4;stroke:#1f77b4;" x="79.594215" xlink:href="#ma9905855b5" y="123.512727"/>
     <use style="fill:#1f77b4;stroke:#1f77b4;" x="76.135537" xlink:href="#ma9905855b5" y="143.28"/>
     <use style="fill:#1f77b4;stroke:#1f77b4;" x="72.67686" xlink:href="#ma9905855b5" y="176.225455"/>
     <use style="fill:#1f77b4;stroke:#1f77b4;" x="69.218182" xlink:href="#ma9905855b5" y="242.116364"/>
     <use style="fill:#1f77b4;stroke:#1f77b4;" x="69.218182" xlink:href="#ma9905855b5" y="242.116364"/>
     <use style="fill:#1f77b4;stroke:#1f77b4;" x="69.218182" xlink:href="#ma9905855b5" y="44.443636"/>
    </g>
   </g>
   <g id="PathCollection_1">
    <defs>
     <path d="M 0 3 
C 0.795609 3 1.55874 2.683901 2.12132 2.12132 
C 2.683901 1.55874 3 0.795609 3 0 
C 3 -0.795609 2.683901 -1.55874 2.12132 -2.12132 
C 1.55874 -2.683901 0.795609 -3 0 -3 
C -0.795609 -3 -1.55874 -2.683901 -2.12132 -2.12132 
C -2.683901 -1.55874 -3 -0.795609 -3 0 
C -3 0.795609 -2.683901 1.55874 -2.12132 2.12132 
C -1.55874 2.683901 -0.795609 3 0 3 
z
" id="m4b7d20466e" style="stroke:#000000;"/>
    </defs>
    <g clip-path="url(#pe81cf3c767)">
     <use style="stroke:#000000;" x="325.160331" xlink:href="#m4b7d20466e" y="169.701602"/>
    </g>
   </g>
   <g id="matplotlib.axis_1">
    <g id="xtick_1">
     <g id="line2d_2">
      <defs>
       <path d="M 0 0 
L 0 3.5 
" id="m67332890ce" style="stroke:#000000;stroke-width:0.8;"/>
      </defs>
      <g>
       <use style="stroke:#000000;stroke-width:0.8;" x="69.218182" xlink:href="#m67332890ce" y="252"/>
      </g>
     </g>
     <g id="text_1">
      <!-- 0.0 -->
      <g transform="translate(61.266619 266.598437)scale(0.1 -0.1)">
       <defs>
        <path d="M 31.78125 66.40625 
Q 24.171875 66.40625 20.328125 58.90625 
Q 16.5 51.421875 16.5 36.375 
Q 16.5 21.390625 20.328125 13.890625 
Q 24.171875 6.390625 31.78125 6.390625 
Q 39.453125 6.390625 43.28125 13.890625 
Q 47.125 21.390625 47.125 36.375 
Q 47.125 51.421875 43.28125 58.90625 
Q 39.453125 66.40625 31.78125 66.40625 
z
M 31.78125 74.21875 
Q 44.046875 74.21875 50.515625 64.515625 
Q 56.984375 54.828125 56.984375 36.375 
Q 56.984375 17.96875 50.515625 8.265625 
Q 44.046875 -1.421875 31.78125 -1.421875 
Q 19.53125 -1.421875 13.0625 8.265625 
Q 6.59375 17.96875 6.59375 36.375 
Q 6.59375 54.828125 13.0625 64.515625 
Q 19.53125 74.21875 31.78125 74.21875 
z
" id="DejaVuSans-48"/>
        <path d="M 10.6875 12.40625 
L 21 12.40625 
L 21 0 
L 10.6875 0 
z
" id="DejaVuSans-46"/>
       </defs>
       <use xlink:href="#DejaVuSans-48"/>
       <use x="63.623047" xlink:href="#DejaVuSans-46"/>
       <use x="95.410156" xlink:href="#DejaVuSans-48"/>
      </g>
     </g>
    </g>
    <g id="xtick_2">
     <g id="line2d_3">
      <g>
       <use style="stroke:#000000;stroke-width:0.8;" x="130.090909" xlink:href="#m67332890ce" y="252"/>
      </g>
     </g>
     <g id="text_2">
      <!-- 0.2 -->
      <g transform="translate(122.139347 266.598437)scale(0.1 -0.1)">
       <defs>
        <path d="M 19.1875 8.296875 
L 53.609375 8.296875 
L 53.609375 0 
L 7.328125 0 
L 7.328125 8.296875 
Q 12.9375 14.109375 22.625 23.890625 
Q 32.328125 33.6875 34.8125 36.53125 
Q 39.546875 41.84375 41.421875 45.53125 
Q 43.3125 49.21875 43.3125 52.78125 
Q 43.3125 58.59375 39.234375 62.25 
Q 35.15625 65.921875 28.609375 65.921875 
Q 23.96875 65.921875 18.8125 64.3125 
Q 13.671875 62.703125 7.8125 59.421875 
L 7.8125 69.390625 
Q 13.765625 71.78125 18.9375 73 
Q 24.125 74.21875 28.421875 74.21875 
Q 39.75 74.21875 46.484375 68.546875 
Q 53.21875 62.890625 53.21875 53.421875 
Q 53.21875 48.921875 51.53125 44.890625 
Q 49.859375 40.875 45.40625 35.40625 
Q 44.1875 33.984375 37.640625 27.21875 
Q 31.109375 20.453125 19.1875 8.296875 
z
" id="DejaVuSans-50"/>
       </defs>
       <use xlink:href="#DejaVuSans-48"/>
       <use x="63.623047" xlink:href="#DejaVuSans-46"/>
       <use x="95.410156" xlink:href="#DejaVuSans-50"/>
      </g>
     </g>
    </g>
    <g id="xtick_3">
     <g id="line2d_4">
      <g>
       <use style="stroke:#000000;stroke-width:0.8;" x="190.963636" xlink:href="#m67332890ce" y="252"/>
      </g>
     </g>
     <g id="text_3">
      <!-- 0.4 -->
      <g transform="translate(183.012074 266.598437)scale(0.1 -0.1)">
       <defs>
        <path d="M 37.796875 64.3125 
L 12.890625 25.390625 
L 37.796875 25.390625 
z
M 35.203125 72.90625 
L 47.609375 72.90625 
L 47.609375 25.390625 
L 58.015625 25.390625 
L 58.015625 17.1875 
L 47.609375 17.1875 
L 47.609375 0 
L 37.796875 0 
L 37.796875 17.1875 
L 4.890625 17.1875 
L 4.890625 26.703125 
z
" id="DejaVuSans-52"/>
       </defs>
       <use xlink:href="#DejaVuSans-48"/>
       <use x="63.623047" xlink:href="#DejaVuSans-46"/>
       <use x="95.410156" xlink:href="#DejaVuSans-52"/>
      </g>
     </g>
    </g>
    <g id="xtick_4">
     <g id="line2d_5">
      <g>
       <use style="stroke:#000000;stroke-width:0.8;" x="251.836364" xlink:href="#m67332890ce" y="252"/>
      </g>
     </g>
     <g id="text_4">
      <!-- 0.6 -->
      <g transform="translate(243.884801 266.598437)scale(0.1 -0.1)">
       <defs>
        <path d="M 33.015625 40.375 
Q 26.375 40.375 22.484375 35.828125 
Q 18.609375 31.296875 18.609375 23.390625 
Q 18.609375 15.53125 22.484375 10.953125 
Q 26.375 6.390625 33.015625 6.390625 
Q 39.65625 6.390625 43.53125 10.953125 
Q 47.40625 15.53125 47.40625 23.390625 
Q 47.40625 31.296875 43.53125 35.828125 
Q 39.65625 40.375 33.015625 40.375 
z
M 52.59375 71.296875 
L 52.59375 62.3125 
Q 48.875 64.0625 45.09375 64.984375 
Q 41.3125 65.921875 37.59375 65.921875 
Q 27.828125 65.921875 22.671875 59.328125 
Q 17.53125 52.734375 16.796875 39.40625 
Q 19.671875 43.65625 24.015625 45.921875 
Q 28.375 48.1875 33.59375 48.1875 
Q 44.578125 48.1875 50.953125 41.515625 
Q 57.328125 34.859375 57.328125 23.390625 
Q 57.328125 12.15625 50.6875 5.359375 
Q 44.046875 -1.421875 33.015625 -1.421875 
Q 20.359375 -1.421875 13.671875 8.265625 
Q 6.984375 17.96875 6.984375 36.375 
Q 6.984375 53.65625 15.1875 63.9375 
Q 23.390625 74.21875 37.203125 74.21875 
Q 40.921875 74.21875 44.703125 73.484375 
Q 48.484375 72.75 52.59375 71.296875 
z
" id="DejaVuSans-54"/>
       </defs>
       <use xlink:href="#DejaVuSans-48"/>
       <use x="63.623047" xlink:href="#DejaVuSans-46"/>
       <use x="95.410156" xlink:href="#DejaVuSans-54"/>
      </g>
     </g>
    </g>
    <g id="xtick_5">
     <g id="line2d_6">
      <g>
       <use style="stroke:#000000;stroke-width:0.8;" x="312.709091" xlink:href="#m67332890ce" y="252"/>
      </g>
     </g>
     <g id="text_5">
      <!-- 0.8 -->
      <g transform="translate(304.757528 266.598437)scale(0.1 -0.1)">
       <defs>
        <path d="M 31.78125 34.625 
Q 24.75 34.625 20.71875 30.859375 
Q 16.703125 27.09375 16.703125 20.515625 
Q 16.703125 13.921875 20.71875 10.15625 
Q 24.75 6.390625 31.78125 6.390625 
Q 38.8125 6.390625 42.859375 10.171875 
Q 46.921875 13.96875 46.921875 20.515625 
Q 46.921875 27.09375 42.890625 30.859375 
Q 38.875 34.625 31.78125 34.625 
z
M 21.921875 38.8125 
Q 15.578125 40.375 12.03125 44.71875 
Q 8.5 49.078125 8.5 55.328125 
Q 8.5 64.0625 14.71875 69.140625 
Q 20.953125 74.21875 31.78125 74.21875 
Q 42.671875 74.21875 48.875 69.140625 
Q 55.078125 64.0625 55.078125 55.328125 
Q 55.078125 49.078125 51.53125 44.71875 
Q 48 40.375 41.703125 38.8125 
Q 48.828125 37.15625 52.796875 32.3125 
Q 56.78125 27.484375 56.78125 20.515625 
Q 56.78125 9.90625 50.3125 4.234375 
Q 43.84375 -1.421875 31.78125 -1.421875 
Q 19.734375 -1.421875 13.25 4.234375 
Q 6.78125 9.90625 6.78125 20.515625 
Q 6.78125 27.484375 10.78125 32.3125 
Q 14.796875 37.15625 21.921875 38.8125 
z
M 18.3125 54.390625 
Q 18.3125 48.734375 21.84375 45.5625 
Q 25.390625 42.390625 31.78125 42.390625 
Q 38.140625 42.390625 41.71875 45.5625 
Q 45.3125 48.734375 45.3125 54.390625 
Q 45.3125 60.0625 41.71875 63.234375 
Q 38.140625 66.40625 31.78125 66.40625 
Q 25.390625 66.40625 21.84375 63.234375 
Q 18.3125 60.0625 18.3125 54.390625 
z
" id="DejaVuSans-56"/>
       </defs>
       <use xlink:href="#DejaVuSans-48"/>
       <use x="63.623047" xlink:href="#DejaVuSans-46"/>
       <use x="95.410156" xlink:href="#DejaVuSans-56"/>
      </g>
     </g>
    </g>
    <g id="xtick_6">
     <g id="line2d_7">
      <g>
       <use style="stroke:#000000;stroke-width:0.8;" x="373.581818" xlink:href="#m67332890ce" y="252"/>
      </g>
     </g>
     <g id="text_6">
      <!-- 1.0 -->
      <g transform="translate(365.630256 266.598437)scale(0.1 -0.1)">
       <defs>
        <path d="M 12.40625 8.296875 
L 28.515625 8.296875 
L 28.515625 63.921875 
L 10.984375 60.40625 
L 10.984375 69.390625 
L 28.421875 72.90625 
L 38.28125 72.90625 
L 38.28125 8.296875 
L 54.390625 8.296875 
L 54.390625 0 
L 12.40625 0 
z
" id="DejaVuSans-49"/>
       </defs>
       <use xlink:href="#DejaVuSans-49"/>
       <use x="63.623047" xlink:href="#DejaVuSans-46"/>
       <use x="95.410156" xlink:href="#DejaVuSans-48"/>
      </g>
     </g>
    </g>
    <g id="text_7">
     <!-- Recall -->
     <g transform="translate(206.482812 280.276563)scale(0.1 -0.1)">
      <defs>
       <path d="M 44.390625 34.1875 
Q 47.5625 33.109375 50.5625 29.59375 
Q 53.5625 26.078125 56.59375 19.921875 
L 66.609375 0 
L 56 0 
L 46.6875 18.703125 
Q 43.0625 26.03125 39.671875 28.421875 
Q 36.28125 30.8125 30.421875 30.8125 
L 19.671875 30.8125 
L 19.671875 0 
L 9.8125 0 
L 9.8125 72.90625 
L 32.078125 72.90625 
Q 44.578125 72.90625 50.734375 67.671875 
Q 56.890625 62.453125 56.890625 51.90625 
Q 56.890625 45.015625 53.6875 40.46875 
Q 50.484375 35.9375 44.390625 34.1875 
z
M 19.671875 64.796875 
L 19.671875 38.921875 
L 32.078125 38.921875 
Q 39.203125 38.921875 42.84375 42.21875 
Q 46.484375 45.515625 46.484375 51.90625 
Q 46.484375 58.296875 42.84375 61.546875 
Q 39.203125 64.796875 32.078125 64.796875 
z
" id="DejaVuSans-82"/>
       <path d="M 56.203125 29.59375 
L 56.203125 25.203125 
L 14.890625 25.203125 
Q 15.484375 15.921875 20.484375 11.0625 
Q 25.484375 6.203125 34.421875 6.203125 
Q 39.59375 6.203125 44.453125 7.46875 
Q 49.3125 8.734375 54.109375 11.28125 
L 54.109375 2.78125 
Q 49.265625 0.734375 44.1875 -0.34375 
Q 39.109375 -1.421875 33.890625 -1.421875 
Q 20.796875 -1.421875 13.15625 6.1875 
Q 5.515625 13.8125 5.515625 26.8125 
Q 5.515625 40.234375 12.765625 48.109375 
Q 20.015625 56 32.328125 56 
Q 43.359375 56 49.78125 48.890625 
Q 56.203125 41.796875 56.203125 29.59375 
z
M 47.21875 32.234375 
Q 47.125 39.59375 43.09375 43.984375 
Q 39.0625 48.390625 32.421875 48.390625 
Q 24.90625 48.390625 20.390625 44.140625 
Q 15.875 39.890625 15.1875 32.171875 
z
" id="DejaVuSans-101"/>
       <path d="M 48.78125 52.59375 
L 48.78125 44.1875 
Q 44.96875 46.296875 41.140625 47.34375 
Q 37.3125 48.390625 33.40625 48.390625 
Q 24.65625 48.390625 19.8125 42.84375 
Q 14.984375 37.3125 14.984375 27.296875 
Q 14.984375 17.28125 19.8125 11.734375 
Q 24.65625 6.203125 33.40625 6.203125 
Q 37.3125 6.203125 41.140625 7.25 
Q 44.96875 8.296875 48.78125 10.40625 
L 48.78125 2.09375 
Q 45.015625 0.34375 40.984375 -0.53125 
Q 36.96875 -1.421875 32.421875 -1.421875 
Q 20.0625 -1.421875 12.78125 6.34375 
Q 5.515625 14.109375 5.515625 27.296875 
Q 5.515625 40.671875 12.859375 48.328125 
Q 20.21875 56 33.015625 56 
Q 37.15625 56 41.109375 55.140625 
Q 45.0625 54.296875 48.78125 52.59375 
z
" id="DejaVuSans-99"/>
       <path d="M 34.28125 27.484375 
Q 23.390625 27.484375 19.1875 25 
Q 14.984375 22.515625 14.984375 16.5 
Q 14.984375 11.71875 18.140625 8.90625 
Q 21.296875 6.109375 26.703125 6.109375 
Q 34.1875 6.109375 38.703125 11.40625 
Q 43.21875 16.703125 43.21875 25.484375 
L 43.21875 27.484375 
z
M 52.203125 31.203125 
L 52.203125 0 
L 43.21875 0 
L 43.21875 8.296875 
Q 40.140625 3.328125 35.546875 0.953125 
Q 30.953125 -1.421875 24.3125 -1.421875 
Q 15.921875 -1.421875 10.953125 3.296875 
Q 6 8.015625 6 15.921875 
Q 6 25.140625 12.171875 29.828125 
Q 18.359375 34.515625 30.609375 34.515625 
L 43.21875 34.515625 
L 43.21875 35.40625 
Q 43.21875 41.609375 39.140625 45 
Q 35.0625 48.390625 27.6875 48.390625 
Q 23 48.390625 18.546875 47.265625 
Q 14.109375 46.140625 10.015625 43.890625 
L 10.015625 52.203125 
Q 14.9375 54.109375 19.578125 55.046875 
Q 24.21875 56 28.609375 56 
Q 40.484375 56 46.34375 49.84375 
Q 52.203125 43.703125 52.203125 31.203125 
z
" id="DejaVuSans-97"/>
       <path d="M 9.421875 75.984375 
L 18.40625 75.984375 
L 18.40625 0 
L 9.421875 0 
z
" id="DejaVuSans-108"/>
      </defs>
      <use xlink:href="#DejaVuSans-82"/>
      <use x="64.982422" xlink:href="#DejaVuSans-101"/>
      <use x="126.505859" xlink:href="#DejaVuSans-99"/>
      <use x="181.486328" xlink:href="#DejaVuSans-97"/>
      <use x="242.765625" xlink:href="#DejaVuSans-108"/>
      <use x="270.548828" xlink:href="#DejaVuSans-108"/>
     </g>
    </g>
   </g>
   <g id="matplotlib.axis_2">
    <g id="ytick_1">
     <g id="line2d_8">
      <defs>
       <path d="M 0 0 
L -3.5 0 
" id="m675353f284" style="stroke:#000000;stroke-width:0.8;"/>
      </defs>
      <g>
       <use style="stroke:#000000;stroke-width:0.8;" x="54" xlink:href="#m675353f284" y="242.116364"/>
      </g>
     </g>
     <g id="text_8">
      <!-- 0.0 -->
      <g transform="translate(31.096875 245.915582)scale(0.1 -0.1)">
       <use xlink:href="#DejaVuSans-48"/>
       <use x="63.623047" xlink:href="#DejaVuSans-46"/>
       <use x="95.410156" xlink:href="#DejaVuSans-48"/>
      </g>
     </g>
    </g>
    <g id="ytick_2">
     <g id="line2d_9">
      <g>
       <use style="stroke:#000000;stroke-width:0.8;" x="54" xlink:href="#m675353f284" y="202.581818"/>
      </g>
     </g>
     <g id="text_9">
      <!-- 0.2 -->
      <g transform="translate(31.096875 206.381037)scale(0.1 -0.1)">
       <use xlink:href="#DejaVuSans-48"/>
       <use x="63.623047" xlink:href="#DejaVuSans-46"/>
       <use x="95.410156" xlink:href="#DejaVuSans-50"/>
      </g>
     </g>
    </g>
    <g id="ytick_3">
     <g id="line2d_10">
      <g>
       <use style="stroke:#000000;stroke-width:0.8;" x="54" xlink:href="#m675353f284" y="163.047273"/>
      </g>
     </g>
     <g id="text_10">
      <!-- 0.4 -->
      <g transform="translate(31.096875 166.846491)scale(0.1 -0.1)">
       <use xlink:href="#DejaVuSans-48"/>
       <use x="63.623047" xlink:href="#DejaVuSans-46"/>
       <use x="95.410156" xlink:href="#DejaVuSans-52"/>
      </g>
     </g>
    </g>
    <g id="ytick_4">
     <g id="line2d_11">
      <g>
       <use style="stroke:#000000;stroke-width:0.8;" x="54" xlink:href="#m675353f284" y="123.512727"/>
      </g>
     </g>
     <g id="text_11">
      <!-- 0.6 -->
      <g transform="translate(31.096875 127.311946)scale(0.1 -0.1)">
       <use xlink:href="#DejaVuSans-48"/>
       <use x="63.623047" xlink:href="#DejaVuSans-46"/>
       <use x="95.410156" xlink:href="#DejaVuSans-54"/>
      </g>
     </g>
    </g>
    <g id="ytick_5">
     <g id="line2d_12">
      <g>
       <use style="stroke:#000000;stroke-width:0.8;" x="54" xlink:href="#m675353f284" y="83.978182"/>
      </g>
     </g>
     <g id="text_12">
      <!-- 0.8 -->
      <g transform="translate(31.096875 87.777401)scale(0.1 -0.1)">
       <use xlink:href="#DejaVuSans-48"/>
       <use x="63.623047" xlink:href="#DejaVuSans-46"/>
       <use x="95.410156" xlink:href="#DejaVuSans-56"/>
      </g>
     </g>
    </g>
    <g id="ytick_6">
     <g id="line2d_13">
      <g>
       <use style="stroke:#000000;stroke-width:0.8;" x="54" xlink:href="#m675353f284" y="44.443636"/>
      </g>
     </g>
     <g id="text_13">
      <!-- 1.0 -->
      <g transform="translate(31.096875 48.242855)scale(0.1 -0.1)">
       <use xlink:href="#DejaVuSans-49"/>
       <use x="63.623047" xlink:href="#DejaVuSans-46"/>
       <use x="95.410156" xlink:href="#DejaVuSans-48"/>
      </g>
     </g>
    </g>
    <g id="text_14">
     <!-- Precision -->
     <g transform="translate(25.017187 165.587031)rotate(-90)scale(0.1 -0.1)">
      <defs>
       <path d="M 19.671875 64.796875 
L 19.671875 37.40625 
L 32.078125 37.40625 
Q 38.96875 37.40625 42.71875 40.96875 
Q 46.484375 44.53125 46.484375 51.125 
Q 46.484375 57.671875 42.71875 61.234375 
Q 38.96875 64.796875 32.078125 64.796875 
z
M 9.8125 72.90625 
L 32.078125 72.90625 
Q 44.34375 72.90625 50.609375 67.359375 
Q 56.890625 61.8125 56.890625 51.125 
Q 56.890625 40.328125 50.609375 34.8125 
Q 44.34375 29.296875 32.078125 29.296875 
L 19.671875 29.296875 
L 19.671875 0 
L 9.8125 0 
z
" id="DejaVuSans-80"/>
       <path d="M 41.109375 46.296875 
Q 39.59375 47.171875 37.8125 47.578125 
Q 36.03125 48 33.890625 48 
Q 26.265625 48 22.1875 43.046875 
Q 18.109375 38.09375 18.109375 28.8125 
L 18.109375 0 
L 9.078125 0 
L 9.078125 54.6875 
L 18.109375 54.6875 
L 18.109375 46.1875 
Q 20.953125 51.171875 25.484375 53.578125 
Q 30.03125 56 36.53125 56 
Q 37.453125 56 38.578125 55.875 
Q 39.703125 55.765625 41.0625 55.515625 
z
" id="DejaVuSans-114"/>
       <path d="M 9.421875 54.6875 
L 18.40625 54.6875 
L 18.40625 0 
L 9.421875 0 
z
M 9.421875 75.984375 
L 18.40625 75.984375 
L 18.40625 64.59375 
L 9.421875 64.59375 
z
" id="DejaVuSans-105"/>
       <path d="M 44.28125 53.078125 
L 44.28125 44.578125 
Q 40.484375 46.53125 36.375 47.5 
Q 32.28125 48.484375 27.875 48.484375 
Q 21.1875 48.484375 17.84375 46.4375 
Q 14.5 44.390625 14.5 40.28125 
Q 14.5 37.15625 16.890625 35.375 
Q 19.28125 33.59375 26.515625 31.984375 
L 29.59375 31.296875 
Q 39.15625 29.25 43.1875 25.515625 
Q 47.21875 21.78125 47.21875 15.09375 
Q 47.21875 7.46875 41.1875 3.015625 
Q 35.15625 -1.421875 24.609375 -1.421875 
Q 20.21875 -1.421875 15.453125 -0.5625 
Q 10.6875 0.296875 5.421875 2 
L 5.421875 11.28125 
Q 10.40625 8.6875 15.234375 7.390625 
Q 20.0625 6.109375 24.8125 6.109375 
Q 31.15625 6.109375 34.5625 8.28125 
Q 37.984375 10.453125 37.984375 14.40625 
Q 37.984375 18.0625 35.515625 20.015625 
Q 33.0625 21.96875 24.703125 23.78125 
L 21.578125 24.515625 
Q 13.234375 26.265625 9.515625 29.90625 
Q 5.8125 33.546875 5.8125 39.890625 
Q 5.8125 47.609375 11.28125 51.796875 
Q 16.75 56 26.8125 56 
Q 31.78125 56 36.171875 55.265625 
Q 40.578125 54.546875 44.28125 53.078125 
z
" id="DejaVuSans-115"/>
       <path d="M 30.609375 48.390625 
Q 23.390625 48.390625 19.1875 42.75 
Q 14.984375 37.109375 14.984375 27.296875 
Q 14.984375 17.484375 19.15625 11.84375 
Q 23.34375 6.203125 30.609375 6.203125 
Q 37.796875 6.203125 41.984375 11.859375 
Q 46.1875 17.53125 46.1875 27.296875 
Q 46.1875 37.015625 41.984375 42.703125 
Q 37.796875 48.390625 30.609375 48.390625 
z
M 30.609375 56 
Q 42.328125 56 49.015625 48.375 
Q 55.71875 40.765625 55.71875 27.296875 
Q 55.71875 13.875 49.015625 6.21875 
Q 42.328125 -1.421875 30.609375 -1.421875 
Q 18.84375 -1.421875 12.171875 6.21875 
Q 5.515625 13.875 5.515625 27.296875 
Q 5.515625 40.765625 12.171875 48.375 
Q 18.84375 56 30.609375 56 
z
" id="DejaVuSans-111"/>
       <path d="M 54.890625 33.015625 
L 54.890625 0 
L 45.90625 0 
L 45.90625 32.71875 
Q 45.90625 40.484375 42.875 44.328125 
Q 39.84375 48.1875 33.796875 48.1875 
Q 26.515625 48.1875 22.3125 43.546875 
Q 18.109375 38.921875 18.109375 30.90625 
L 18.109375 0 
L 9.078125 0 
L 9.078125 54.6875 
L 18.109375 54.6875 
L 18.109375 46.1875 
Q 21.34375 51.125 25.703125 53.5625 
Q 30.078125 56 35.796875 56 
Q 45.21875 56 50.046875 50.171875 
Q 54.890625 44.34375 54.890625 33.015625 
z
" id="DejaVuSans-110"/>
      </defs>
      <use xlink:href="#DejaVuSans-80"/>
      <use x="58.552734" xlink:href="#DejaVuSans-114"/>
      <use x="97.416016" xlink:href="#DejaVuSans-101"/>
      <use x="158.939453" xlink:href="#DejaVuSans-99"/>
      <use x="213.919922" xlink:href="#DejaVuSans-105"/>
      <use x="241.703125" xlink:href="#DejaVuSans-115"/>
      <use x="293.802734" xlink:href="#DejaVuSans-105"/>
      <use x="321.585938" xlink:href="#DejaVuSans-111"/>
      <use x="382.767578" xlink:href="#DejaVuSans-110"/>
     </g>
    </g>
   </g>
   <g id="patch_3">
    <path d="M 54 252 
L 54 34.56 
" style="fill:none;stroke:#000000;stroke-linecap:square;stroke-linejoin:miter;stroke-width:0.8;"/>
   </g>
   <g id="patch_4">
    <path d="M 388.8 252 
L 388.8 34.56 
" style="fill:none;stroke:#000000;stroke-linecap:square;stroke-linejoin:miter;stroke-width:0.8;"/>
   </g>
   <g id="patch_5">
    <path d="M 54 252 
L 388.8 252 
" style="fill:none;stroke:#000000;stroke-linecap:square;stroke-linejoin:miter;stroke-width:0.8;"/>
   </g>
   <g id="patch_6">
    <path d="M 54 34.56 
L 388.8 34.56 
" style="fill:none;stroke:#000000;stroke-linecap:square;stroke-linejoin:miter;stroke-width:0.8;"/>
   </g>
   <g id="legend_1">
    <g id="patch_7">
     <path d="M 257.779688 57.238125 
L 381.8 57.238125 
Q 383.8 57.238125 383.8 55.238125 
L 383.8 41.56 
Q 383.8 39.56 381.8 39.56 
L 257.779688 39.56 
Q 255.779688 39.56 255.779688 41.56 
L 255.779688 55.238125 
Q 255.779688 57.238125 257.779688 57.238125 
z
" style="fill:#ffffff;opacity:0.8;stroke:#cccccc;stroke-linejoin:miter;"/>
    </g>
    <g id="PathCollection_2">
     <g>
      <use style="stroke:#000000;" x="269.779688" xlink:href="#m4b7d20466e" y="48.533437"/>
     </g>
    </g>
    <g id="text_15">
     <!-- Optimal Threshold -->
     <g transform="translate(287.779688 51.158437)scale(0.1 -0.1)">
      <defs>
       <path d="M 39.40625 66.21875 
Q 28.65625 66.21875 22.328125 58.203125 
Q 16.015625 50.203125 16.015625 36.375 
Q 16.015625 22.609375 22.328125 14.59375 
Q 28.65625 6.59375 39.40625 6.59375 
Q 50.140625 6.59375 56.421875 14.59375 
Q 62.703125 22.609375 62.703125 36.375 
Q 62.703125 50.203125 56.421875 58.203125 
Q 50.140625 66.21875 39.40625 66.21875 
z
M 39.40625 74.21875 
Q 54.734375 74.21875 63.90625 63.9375 
Q 73.09375 53.65625 73.09375 36.375 
Q 73.09375 19.140625 63.90625 8.859375 
Q 54.734375 -1.421875 39.40625 -1.421875 
Q 24.03125 -1.421875 14.8125 8.828125 
Q 5.609375 19.09375 5.609375 36.375 
Q 5.609375 53.65625 14.8125 63.9375 
Q 24.03125 74.21875 39.40625 74.21875 
z
" id="DejaVuSans-79"/>
       <path d="M 18.109375 8.203125 
L 18.109375 -20.796875 
L 9.078125 -20.796875 
L 9.078125 54.6875 
L 18.109375 54.6875 
L 18.109375 46.390625 
Q 20.953125 51.265625 25.265625 53.625 
Q 29.59375 56 35.59375 56 
Q 45.5625 56 51.78125 48.09375 
Q 58.015625 40.1875 58.015625 27.296875 
Q 58.015625 14.40625 51.78125 6.484375 
Q 45.5625 -1.421875 35.59375 -1.421875 
Q 29.59375 -1.421875 25.265625 0.953125 
Q 20.953125 3.328125 18.109375 8.203125 
z
M 48.6875 27.296875 
Q 48.6875 37.203125 44.609375 42.84375 
Q 40.53125 48.484375 33.40625 48.484375 
Q 26.265625 48.484375 22.1875 42.84375 
Q 18.109375 37.203125 18.109375 27.296875 
Q 18.109375 17.390625 22.1875 11.75 
Q 26.265625 6.109375 33.40625 6.109375 
Q 40.53125 6.109375 44.609375 11.75 
Q 48.6875 17.390625 48.6875 27.296875 
z
" id="DejaVuSans-112"/>
       <path d="M 18.3125 70.21875 
L 18.3125 54.6875 
L 36.8125 54.6875 
L 36.8125 47.703125 
L 18.3125 47.703125 
L 18.3125 18.015625 
Q 18.3125 11.328125 20.140625 9.421875 
Q 21.96875 7.515625 27.59375 7.515625 
L 36.8125 7.515625 
L 36.8125 0 
L 27.59375 0 
Q 17.1875 0 13.234375 3.875 
Q 9.28125 7.765625 9.28125 18.015625 
L 9.28125 47.703125 
L 2.6875 47.703125 
L 2.6875 54.6875 
L 9.28125 54.6875 
L 9.28125 70.21875 
z
" id="DejaVuSans-116"/>
       <path d="M 52 44.1875 
Q 55.375 50.25 60.0625 53.125 
Q 64.75 56 71.09375 56 
Q 79.640625 56 84.28125 50.015625 
Q 88.921875 44.046875 88.921875 33.015625 
L 88.921875 0 
L 79.890625 0 
L 79.890625 32.71875 
Q 79.890625 40.578125 77.09375 44.375 
Q 74.3125 48.1875 68.609375 48.1875 
Q 61.625 48.1875 57.5625 43.546875 
Q 53.515625 38.921875 53.515625 30.90625 
L 53.515625 0 
L 44.484375 0 
L 44.484375 32.71875 
Q 44.484375 40.625 41.703125 44.40625 
Q 38.921875 48.1875 33.109375 48.1875 
Q 26.21875 48.1875 22.15625 43.53125 
Q 18.109375 38.875 18.109375 30.90625 
L 18.109375 0 
L 9.078125 0 
L 9.078125 54.6875 
L 18.109375 54.6875 
L 18.109375 46.1875 
Q 21.1875 51.21875 25.484375 53.609375 
Q 29.78125 56 35.6875 56 
Q 41.65625 56 45.828125 52.96875 
Q 50 49.953125 52 44.1875 
z
" id="DejaVuSans-109"/>
       <path id="DejaVuSans-32"/>
       <path d="M -0.296875 72.90625 
L 61.375 72.90625 
L 61.375 64.59375 
L 35.5 64.59375 
L 35.5 0 
L 25.59375 0 
L 25.59375 64.59375 
L -0.296875 64.59375 
z
" id="DejaVuSans-84"/>
       <path d="M 54.890625 33.015625 
L 54.890625 0 
L 45.90625 0 
L 45.90625 32.71875 
Q 45.90625 40.484375 42.875 44.328125 
Q 39.84375 48.1875 33.796875 48.1875 
Q 26.515625 48.1875 22.3125 43.546875 
Q 18.109375 38.921875 18.109375 30.90625 
L 18.109375 0 
L 9.078125 0 
L 9.078125 75.984375 
L 18.109375 75.984375 
L 18.109375 46.1875 
Q 21.34375 51.125 25.703125 53.5625 
Q 30.078125 56 35.796875 56 
Q 45.21875 56 50.046875 50.171875 
Q 54.890625 44.34375 54.890625 33.015625 
z
" id="DejaVuSans-104"/>
       <path d="M 45.40625 46.390625 
L 45.40625 75.984375 
L 54.390625 75.984375 
L 54.390625 0 
L 45.40625 0 
L 45.40625 8.203125 
Q 42.578125 3.328125 38.25 0.953125 
Q 33.9375 -1.421875 27.875 -1.421875 
Q 17.96875 -1.421875 11.734375 6.484375 
Q 5.515625 14.40625 5.515625 27.296875 
Q 5.515625 40.1875 11.734375 48.09375 
Q 17.96875 56 27.875 56 
Q 33.9375 56 38.25 53.625 
Q 42.578125 51.265625 45.40625 46.390625 
z
M 14.796875 27.296875 
Q 14.796875 17.390625 18.875 11.75 
Q 22.953125 6.109375 30.078125 6.109375 
Q 37.203125 6.109375 41.296875 11.75 
Q 45.40625 17.390625 45.40625 27.296875 
Q 45.40625 37.203125 41.296875 42.84375 
Q 37.203125 48.484375 30.078125 48.484375 
Q 22.953125 48.484375 18.875 42.84375 
Q 14.796875 37.203125 14.796875 27.296875 
z
" id="DejaVuSans-100"/>
      </defs>
      <use xlink:href="#DejaVuSans-79"/>
      <use x="78.710938" xlink:href="#DejaVuSans-112"/>
      <use x="142.1875" xlink:href="#DejaVuSans-116"/>
      <use x="181.396484" xlink:href="#DejaVuSans-105"/>
      <use x="209.179688" xlink:href="#DejaVuSans-109"/>
      <use x="306.591797" xlink:href="#DejaVuSans-97"/>
      <use x="367.871094" xlink:href="#DejaVuSans-108"/>
      <use x="395.654297" xlink:href="#DejaVuSans-32"/>
      <use x="427.441406" xlink:href="#DejaVuSans-84"/>
      <use x="488.525391" xlink:href="#DejaVuSans-104"/>
      <use x="551.904297" xlink:href="#DejaVuSans-114"/>
      <use x="590.767578" xlink:href="#DejaVuSans-101"/>
      <use x="652.291016" xlink:href="#DejaVuSans-115"/>
      <use x="704.390625" xlink:href="#DejaVuSans-104"/>
      <use x="767.769531" xlink:href="#DejaVuSans-111"/>
      <use x="828.951172" xlink:href="#DejaVuSans-108"/>
      <use x="856.734375" xlink:href="#DejaVuSans-100"/>
     </g>
    </g>
   </g>
  </g>
 </g>
 <defs>
  <clipPath id="pe81cf3c767">
   <rect height="217.44" width="334.8" x="54" y="34.56"/>
  </clipPath>
 </defs>
</svg>
